<svg xmlns="http://www.w3.org/2000/svg" viewBox="0 0 31.41 31.42"><defs><style>.cls-1{fill:#f9f9f9;}</style></defs><title>earth</title><g id="Layer_2" data-name="Layer 2"><g id="Capa_1" data-name="Capa 1"><path class="cls-1" d="M28.75,7l-.47.15-2.5.22-.71,1.13-.51-.16-2-1.8-.29-.93-.39-1L20.64,3.46l-1.48-.29,0,.67,1.44,1.42.71.83-.79.42-.65-.19-1-.41,0-.78L17.63,4.6,17.2,6.44l-1.28.29.13,1,1.67.32L18,6.44l1.38.21L20,7h1l.71,1.41,1.87,1.9-.14.74L22,10.88l-2.6,1.31-1.88,2.25-.24,1H16.6l-1.26-.58-1.22.58.31,1.28.53-.61.93,0-.07,1.15.78.23.77.87L18.63,18l1.43.23,1.67.45.84.1L24,20.35,26.71,22,25,25.33l-1.87.86-.7,1.93-2.7,1.8-.29,1A15.69,15.69,0,0,0,28.75,7Z"/><path class="cls-1" d="M17.51,23.92,16.37,21.8l1.05-2.19-1.05-.32-1.18-1.18-2.61-.59-.87-1.81v1.08h-.38l-2.25-3V11.23L7.43,8.55,4.81,9H3l-.89-.58,1.14-.9-1.13.26A15.69,15.69,0,0,0,15.7,31.42a16.19,16.19,0,0,0,2-.14l-.17-1.9s.72-2.83.72-2.93S17.51,23.92,17.51,23.92Z"/><path class="cls-1" d="M5.84,5.07l2.79-.39L9.91,4l1.45.42,2.31-.13L14.46,3l1.16.19,2.8-.27.78-.85,1.09-.73,1.54.23.56-.08a15.66,15.66,0,0,0-18.8,4.2h0ZM16.37,1.56,18,.68l1,.59L17.51,2.41l-1.42.14-.64-.41Zm-4.75.13.71.3.92-.3.51.88-2.14.56-1-.6S11.59,1.88,11.62,1.69Z"/></g></g></svg>