<svg xmlns="http://www.w3.org/2000/svg" viewBox="0 0 609.58 509.4"><defs><style>.cls-1{fill:#cacaca;}.cls-2{fill:#fc3232;}</style></defs><title>ic-cart</title><g id="Layer_2" data-name="Layer 2"><g id="Capa_1" data-name="Capa 1"><path class="cls-1" d="M165,359.4H437a15,15,0,0,0,14.42-10.88l60-210A15,15,0,0,0,497,119.4H130.37L119.64,71.15A15,15,0,0,0,105,59.4H15a15,15,0,0,0,0,30H93c1.9,8.55,51.31,230.92,54.16,243.71A45,45,0,0,0,165,419.4H437a15,15,0,0,0,0-30H165a15,15,0,0,1,0-30Zm312.15-210-51.43,180H177l-40-180Z"/><path class="cls-1" d="M150,464.4a45,45,0,1,0,45-45A45.05,45.05,0,0,0,150,464.4Zm45-15a15,15,0,1,1-15,15A15,15,0,0,1,195,449.4Z"/><path class="cls-1" d="M362,464.4a45,45,0,1,0,45-45A45.05,45.05,0,0,0,362,464.4Zm45-15a15,15,0,1,1-15,15A15,15,0,0,1,407,449.4Z"/><circle class="cls-2" cx="477.08" cy="132.5" r="132.5"/></g></g></svg>