<svg xmlns="http://www.w3.org/2000/svg" viewBox="0 0 519 442.03"><defs><style>.cls-1,.cls-2,.cls-3{fill:#f58220;stroke:#f58220;stroke-miterlimit:10;}.cls-1{stroke-width:7px;}.cls-2{stroke-width:11px;}.cls-3{stroke-width:0.5px;}</style></defs><title>ic-car</title><g id="Layer_2" data-name="Layer 2"><g id="Capa_1" data-name="Capa 1"><path class="cls-1" d="M479.66,252l-13.26-53a8,8,0,0,0,6.34-7.84v-8.55a33.7,33.7,0,0,0-33.67-33.67H378.68V131.22a16.58,16.58,0,0,0-16.57-16.57H249.82l68.24-27.29a8,8,0,1,0-5.95-14.89L256.23,94.82c17-10.93,33.87-22.95,40.29-31.36a37.34,37.34,0,1,0-59.38-45.28C228,30.14,216,63.75,208.19,87.44c-7.79-23.68-19.82-57.3-28.94-69.26a37.34,37.34,0,0,0-59.38,45.28c6.41,8.41,23.26,20.43,40.29,31.36L104.28,72.47a8,8,0,1,0-6,14.89l68.24,27.29H54.27A16.59,16.59,0,0,0,37.7,131.22V276.59a8,8,0,1,0,16,0V131.22a.53.53,0,0,1,.53-.53H362.11a.53.53,0,0,1,.54.53V276.59a8,8,0,1,0,16,0V267.5H473.3a26.25,26.25,0,0,1,24.91,18.18H473.28a8,8,0,0,0-8,8v17.1a25.14,25.14,0,0,0,25.12,25.12h9.09v35.28h-21a50.75,50.75,0,0,0-96,0h-3.86v-60.4a8,8,0,0,0-16,0v60.4H196.32a50.76,50.76,0,0,0-96,0H54.27a.54.54,0,0,1-.53-.54V353H88.48a8,8,0,0,0,0-16h-77a8,8,0,1,0,0,16H37.71v17.64a16.58,16.58,0,0,0,16.56,16.57H97.58c0,.18,0,.35,0,.53a50.78,50.78,0,1,0,101.55,0c0-.18,0-.35,0-.53H379.76c0,.18,0,.35,0,.53a50.77,50.77,0,1,0,101.54,0c0-.18,0-.35,0-.53h26.2a8,8,0,0,0,8-8V293.69A42.3,42.3,0,0,0,479.66,252ZM176.4,86.07c-31.62-19.65-41-28.69-43.78-32.33A21.3,21.3,0,0,1,166.5,27.9c7.75,10.17,19.9,44.4,27.91,69.06C189,93.77,182.78,90,176.4,86.07ZM222,97c8-24.66,20.17-58.89,27.92-69.06a21.3,21.3,0,1,1,33.88,25.84C281,57.38,271.61,66.42,240,86.07,233.6,90,227.38,93.77,222,97Zm156.71,67.93h60.39a17.66,17.66,0,0,1,17.64,17.64v.53h-78Zm0,86.58V199.09h71.24L463,251.47Zm-230.34,171a34.74,34.74,0,1,1,34.73-34.74A34.77,34.77,0,0,1,148.34,422.49Zm282.18,0a34.74,34.74,0,1,1,34.74-34.74A34.78,34.78,0,0,1,430.52,422.49Zm69-102.61h-9.09a9.09,9.09,0,0,1-9.08-9.09v-9.08h18.17v18.17Z"/><path class="cls-2" d="M148.34,371.19a16.57,16.57,0,1,0,16.56,16.56A16.58,16.58,0,0,0,148.34,371.19Z"/><path class="cls-2" d="M430.52,371.19a16.57,16.57,0,1,0,16.57,16.56A16.58,16.58,0,0,0,430.52,371.19Z"/><path class="cls-2" d="M336.46,337H216.74a8,8,0,0,0,0,16H336.46a8,8,0,1,0,0-16Z"/><path class="cls-2" d="M131.23,302.78H28.62a8,8,0,1,0,0,16H131.23a8,8,0,1,0,0-16Z"/><path class="cls-3" d="M131.23,183.06H97a8,8,0,0,0-8,8v68.41a8,8,0,0,0,16,0V233.3h17.64a8,8,0,0,0,0-16H105V199.09h26.19a8,8,0,1,0,0-16Z"/><path class="cls-3" d="M194.32,237.06a29.38,29.38,0,0,0-16.06-54H156.89a8,8,0,0,0-8,8v68.41a8,8,0,0,0,16,0V241.85h13.35L193,263.93a8,8,0,0,0,6.68,3.57,7.92,7.92,0,0,0,4.44-1.35A8,8,0,0,0,206.31,255Zm-16.06-11.24H164.9V199.09h13.36a13.37,13.37,0,1,1,0,26.73Z"/><path class="cls-3" d="M259.5,251.47H233.31v-18.2l.54,0H251a8,8,0,0,0,0-16h-17.1c-.19,0-.36,0-.54,0v-18.2H259.5a8,8,0,1,0,0-16H225.29a8,8,0,0,0-8,8v68.41a8,8,0,0,0,8,8H259.5a8,8,0,1,0,0-16Z"/><path class="cls-3" d="M319.36,251.47H293.17V233.3h9.09a8,8,0,0,0,0-16h-9.09V199.09h26.19a8,8,0,1,0,0-16H285.15a8,8,0,0,0-8,8v68.41a8,8,0,0,0,8,8h34.21a8,8,0,1,0,0-16Z"/></g></g></svg>