<svg xmlns="http://www.w3.org/2000/svg" viewBox="0 0 501.55 502.07"><defs><style>.cls-1{fill:#ffd15c;}.cls-2{fill:#f8b64c;}.cls-3{fill:#40596b;}.cls-4{fill:#f2f2f2;}.cls-5{fill:#cdd6e0;}.cls-6{fill:#ff7058;}</style></defs><title>ic-email</title><g id="Layer_2" data-name="Layer 2"><g id="Layer_1-2" data-name="Layer 1"><path class="cls-1" d="M501.55,481.18a21.27,21.27,0,0,1-6.27,15.67c-4.18,3.13-8.36,5.22-14.63,5.22H20.9a25,25,0,0,1-14.63-5.22A21.27,21.27,0,0,1,0,481.18V175H501.55V481.18Z"/><path class="cls-2" d="M495.28,496.85c-4.18,3.13-8.36,5.22-14.63,5.22H20.9a25,25,0,0,1-14.63-5.22l244.5-210Z"/><path class="cls-3" d="M501.55,175l-71.05,51.2L264.36,345.34a23.51,23.51,0,0,1-28.21,0L71.05,226.22,0,175l71.05-51.2L225.7,13.06,237.19,4.7a23.51,23.51,0,0,1,28.21,0l11.5,8.36,74.19,53.29,36.57,26.12,42.84,31.35Z"/><path class="cls-4" d="M430.5,77.84V226.22L264.36,345.34a23.51,23.51,0,0,1-28.21,0L71.05,226.22V34A21,21,0,0,1,92,13.06H364.67Z"/><path class="cls-5" d="M365.71,61.13a16.5,16.5,0,0,0,16.72,16.71H430.5L365.71,13.06V61.13Z"/><path class="cls-6" d="M312.43,223.09h16.71c-5.22,11.49-13.58,19.85-25.08,26.12-12.53,7.31-28.21,10.45-47,10.45-17.76,0-33.43-3.14-46-9.41s-23-14.63-29.26-27.16a81.38,81.38,0,0,1-9.4-38.67c0-15.67,3.13-29.25,10.45-42.84s16.71-23,29.25-29.25,27.17-9.41,42.85-9.41a82,82,0,0,1,36.57,8.36c10.44,5.23,18.8,12.54,24,23a67.91,67.91,0,0,1,8.36,32.39q0,20.39-12.54,37.62c-10.45,14.63-24,20.9-40.75,20.9a26.31,26.31,0,0,1-10.45-2.09c-2.09-2.09-4.18-4.18-4.18-7.32q-9.41,9.4-21.94,9.41-14.12,0-21.95-9.41-9.41-9.41-9.4-25.08a63.78,63.78,0,0,1,10.45-35.52c8.36-12.54,19.85-18.81,33.43-18.81,9.41,0,16.72,4.18,22,11.49l2.09-9.4h21.94L280,197a27.7,27.7,0,0,0-1,7.32,3.84,3.84,0,0,0,1,3.13c1.05,1.05,1.05,1.05,2.09,1.05,2.09,0,6.27-2.09,10.45-5.23,5.22-4.18,10.45-9.4,13.58-16.72s5.23-14.62,5.23-21.94c0-13.58-5.23-25.08-14.63-33.44-9.4-9.4-23-13.58-40.75-13.58q-21.94,0-37.62,9.4a59.07,59.07,0,0,0-23,25.08c-5.22,10.45-7.31,21.95-7.31,34.48a63.86,63.86,0,0,0,8.36,31.35c6.27,9.41,13.58,16.72,24,20.9S242.42,245,256,245a106.81,106.81,0,0,0,33.44-5.23A62.47,62.47,0,0,0,312.43,223.09Zm-88.82-33.44c0,7.31,1,11.49,4.18,15.67,3.13,3.14,6.27,5.23,10.45,5.23a19.78,19.78,0,0,0,8.36-2.09c2.09-1.05,4.18-3.14,6.26-5.23,3.14-3.13,5.23-8.36,7.32-14.63a57.94,57.94,0,0,0,3.13-17.76c0-6.27-1-10.45-4.18-14.63-3.13-3.13-6.26-5.22-10.44-5.22a19.29,19.29,0,0,0-12.54,5.22q-6.27,4.71-9.41,15.67A58,58,0,0,0,223.61,189.65Z"/></g></g></svg>