<svg xmlns="http://www.w3.org/2000/svg" viewBox="0 0 450 512"><defs><style>.cls-1{fill:#cacaca;}</style></defs><title>ic-headphone</title><g id="Layer_2" data-name="Layer 2"><g id="Capa_1" data-name="Capa 1"><path class="cls-1" d="M225,0C100.93,0,0,100.93,0,225V347a45.05,45.05,0,0,0,45,45H62.58A45,45,0,0,0,150,377V255a45,45,0,0,0-87.42-15H45a44.63,44.63,0,0,0-15,2.58V225C30,117.48,117.48,30,225,30s195,87.48,195,195v17.58A44.93,44.93,0,0,0,405,240H387.42A45,45,0,0,0,300,255V377a45,45,0,0,0,58.06,43.06A45.08,45.08,0,0,1,315,452H267.42a45,45,0,1,0,0,30H315a75.08,75.08,0,0,0,75-75V392h15a45.05,45.05,0,0,0,45-45V225C450,100.93,349.07,0,225,0ZM90,255a15,15,0,0,1,30,0V377a15,15,0,0,1-30,0ZM45,270H60v92H45a15,15,0,0,1-15-15V285A15,15,0,0,1,45,270ZM225,482a15,15,0,1,1,15-15A15,15,0,0,1,225,482ZM360,377a15,15,0,0,1-30,0V255a15,15,0,0,1,30,0Zm60-30a15,15,0,0,1-15,15H390V270h15a15,15,0,0,1,15,15Z"/></g></g></svg>