<svg xmlns="http://www.w3.org/2000/svg" viewBox="0 0 463.14 523"><defs><style>.cls-1{fill:#f58220;stroke:#f58220;stroke-miterlimit:10;stroke-width:11px;}</style></defs><title>ic-medal</title><g id="Layer_2" data-name="Layer 2"><g id="Capa_1" data-name="Capa 1"><path class="cls-1" d="M311.56,166.33a10,10,0,0,0-8.07-6.81L260,153.21,240.52,113.8a10,10,0,0,0-9-5.57h0a10,10,0,0,0-9,5.58l-19.45,39.42-43.5,6.33a10,10,0,0,0-5.53,17.06l31.48,30.68-7.42,43.32a10,10,0,0,0,14.52,10.54l38.9-20.47,38.91,20.45A10,10,0,0,0,285,250.59l-7.44-43.32L309,176.58A10,10,0,0,0,311.56,166.33Zm-51.72,30.29a10,10,0,0,0-2.88,8.86L261.87,234l-25.63-13.46a10,10,0,0,0-9.31,0L201.3,234l4.89-28.54a10,10,0,0,0-2.88-8.85l-20.73-20.21,28.65-4.17a10,10,0,0,0,7.52-5.47l12.81-26,12.82,26a10,10,0,0,0,7.53,5.46l28.66,4.16Z"/><path class="cls-1" d="M456.31,444.87,373.65,301.1a181.07,181.07,0,0,0,39.92-113.6c0-100.36-81.64-182-182-182s-182,81.64-182,182A181.07,181.07,0,0,0,89.49,301.1L6.83,444.87a10,10,0,0,0,10,14.89l64.51-8.66,24.76,60.2a10,10,0,0,0,8.58,6.18l.67,0a10,10,0,0,0,8.66-5L207.45,368l0-.07a182.15,182.15,0,0,0,48.18,0,.25.25,0,0,0,0,.07L339.14,512.5a10,10,0,0,0,8.66,5l.67,0a10,10,0,0,0,8.58-6.18l24.75-60.2,64.52,8.66a10,10,0,0,0,10-14.89Zm-339.45,40-18-43.82L115,414.67A10,10,0,1,0,98,404.22L81.61,430.88l-47.33,6.36,69.28-120.5A182,182,0,0,0,186.7,363.9ZM231.57,349.5c-89.33,0-162-72.67-162-162s72.67-162,162-162,162,72.67,162,162S320.9,349.5,231.57,349.5Zm150,81.38-16.35-26.66a10,10,0,1,0-17.05,10.45l16.17,26.39-18,43.82-69.84-121a182,182,0,0,0,83.14-47.16l69.28,120.5Z"/><path class="cls-1" d="M231.57,57.5A130,130,0,0,0,167.9,74.14a10,10,0,0,0,9.81,17.43A110,110,0,0,1,330.9,234.83,10,10,0,0,0,349,243.45a129,129,0,0,0,12.62-55.95C361.57,115.82,303.25,57.5,231.57,57.5Z"/><path class="cls-1" d="M324.62,263.92a10,10,0,0,0-14.14.21l-.22.23a10,10,0,1,0,14.31,14l.26-.27A10,10,0,0,0,324.62,263.92Z"/><path class="cls-1" d="M298.16,287.85a10,10,0,0,0-13.59-3.94A110,110,0,0,1,131.41,142a10,10,0,0,0-18.2-8.29,128.9,128.9,0,0,0-11.64,53.84c0,71.68,58.32,130,130,130a130.2,130.2,0,0,0,62.66-16.07A10,10,0,0,0,298.16,287.85Z"/><path class="cls-1" d="M150.57,98.4a10,10,0,0,0-14.13.5l-.22.24a10,10,0,1,0,14.68,13.58l.17-.19A10,10,0,0,0,150.57,98.4Z"/></g></g></svg>