<svg xmlns="http://www.w3.org/2000/svg" viewBox="0 0 432 512"><defs><style>.cls-1{fill:#f58220;}</style></defs><title>ic-shield</title><g id="Layer_2" data-name="Layer 2"><g id="Capa_1" data-name="Capa 1"><path class="cls-1" d="M419.67,82.91l-196-81.38a20,20,0,0,0-15.34,0l-196,81.38A20,20,0,0,0,0,101.38V200.3A335,335,0,0,0,208.44,510.52a20.08,20.08,0,0,0,15.12,0A334.94,334.94,0,0,0,432,200.3V101.38A20,20,0,0,0,419.67,82.91ZM392,200.3a295,295,0,0,1-176,270,295,295,0,0,1-176-270V114.73L216,41.65l176,73.08ZM193.89,267.72l86-86A20,20,0,1,1,308.14,210L208,310.14a20,20,0,0,1-28.29,0l-55.89-55.89A20,20,0,0,1,152.14,226Z"/></g></g></svg>