<svg xmlns="http://www.w3.org/2000/svg" viewBox="0 0 48.75 48.75"><defs><style>.cls-1{fill:#cacaca;}</style></defs><title>language</title><g id="Layer_2" data-name="Layer 2"><g id="Capa_1" data-name="Capa 1"><path class="cls-1" d="M44.27,10.32c-.37-.52-.76-1-1.17-1.53A24.34,24.34,0,0,0,24.37,0h-.14A24.37,24.37,0,0,0,5.65,8.79Q5,9.54,4.48,10.32a24.29,24.29,0,0,0,0,28.11Q5,39.21,5.65,40a24.37,24.37,0,0,0,18.58,8.79h.14A24.34,24.34,0,0,0,43.1,40q.61-.75,1.17-1.53a24.29,24.29,0,0,0,0-28.11Zm-27-7.15a22.88,22.88,0,0,0-5.39,9.11A23.22,23.22,0,0,1,7.26,10,22.49,22.49,0,0,1,17.25,3.17ZM6.09,11.52a25.91,25.91,0,0,0,5.21,2.63,38.71,38.71,0,0,0-1.34,10H2A22.29,22.29,0,0,1,6.09,11.52Zm-4,14.65H10a38.43,38.43,0,0,0,1.29,8.43,25.82,25.82,0,0,0-5.2,2.63A22.17,22.17,0,0,1,2.08,26.17ZM7.27,38.75a23.39,23.39,0,0,1,4.59-2.28,22.77,22.77,0,0,0,5.39,9.11A22.48,22.48,0,0,1,7.27,38.75Zm16.1,7.93c-4.1-.57-7.64-4.78-9.65-10.84a37,37,0,0,1,9.65-1.48Zm0-14.31A37.58,37.58,0,0,0,13.16,34,37.17,37.17,0,0,1,12,26.17H23.37Zm0-8.2H12a38,38,0,0,1,1.21-9.39,37.51,37.51,0,0,0,10.2,1.6v7.79Zm0-9.79a37,37,0,0,1-9.64-1.47c2-6.06,5.54-10.28,9.64-10.84Zm23.37,9.79H38.67a38.9,38.9,0,0,0-1.32-10,25.84,25.84,0,0,0,5.31-2.67A22.28,22.28,0,0,1,46.74,24.17ZM41.48,10a22.89,22.89,0,0,1-4.7,2.33,22.88,22.88,0,0,0-5.46-9.21A22.43,22.43,0,0,1,41.48,10ZM25.37,2.09c4.06.62,7.56,4.83,9.55,10.85a36.85,36.85,0,0,1-9.55,1.44Zm0,14.29a38,38,0,0,0,10.1-1.56,37.65,37.65,0,0,1,1.2,9.35H25.37Zm0,9.79H36.63a37.45,37.45,0,0,1-1.15,7.76,38.16,38.16,0,0,0-10.1-1.56v-6.2Zm0,20.49V34.37a36.85,36.85,0,0,1,9.55,1.44C32.93,41.83,29.43,46,25.37,46.66Zm5.95-1a22.7,22.7,0,0,0,5.46-9.21,23.39,23.39,0,0,1,4.7,2.32A22.43,22.43,0,0,1,31.32,45.64Zm11.34-8.41a25.84,25.84,0,0,0-5.31-2.67,38.58,38.58,0,0,0,1.28-8.39h8A22.26,22.26,0,0,1,42.66,37.23Z"/></g></g></svg>