<svg xmlns="http://www.w3.org/2000/svg" viewBox="0 0 512 384"><defs><style>.cls-1{fill:#f9f9f9;}</style></defs><title>letter</title><g id="Layer_2" data-name="Layer 2"><g id="Layer_1-2" data-name="Layer 1"><path class="cls-1" d="M10.69,31.16C81,90.67,204.26,195.36,240.5,228c4.87,4.41,10.08,6.65,15.5,6.65s10.61-2.22,15.47-6.61C307.74,195.38,431,90.67,501.31,31.16a10.66,10.66,0,0,0,1.5-14.72A42.33,42.33,0,0,0,469.33,0H42.67A42.35,42.35,0,0,0,9.19,16.44,10.66,10.66,0,0,0,10.69,31.16Z"/><path class="cls-1" d="M505.81,63.41A10.6,10.6,0,0,0,494.44,65C416.51,131,317.05,215.69,285.76,243.89c-17.56,15.85-41.94,15.85-59.54,0-33.36-30.05-145-125-208.66-178.91A10.67,10.67,0,0,0,0,73.08V341.33A42.72,42.72,0,0,0,42.67,384H469.33A42.72,42.72,0,0,0,512,341.33V73.08A10.66,10.66,0,0,0,505.81,63.41Z"/></g></g></svg>