<svg xmlns="http://www.w3.org/2000/svg" viewBox="0 0 384 384"><defs><style>.cls-1{fill:#f9f9f9;}</style></defs><title>tel</title><g id="Layer_2" data-name="Layer 2"><g id="Capa_1" data-name="Capa 1"><path class="cls-1" d="M353.19,252.05a218,218,0,0,1-68.47-10.9c-10.72-3.66-23.9-.31-30.44,6.41l-43.18,32.6C161,253.43,130.19,222.59,103.82,172.9l31.64-42.06a31,31,0,0,0,7.63-31.44,218.4,218.4,0,0,1-11-68.59A30.84,30.84,0,0,0,101.33,0H30.81A30.84,30.84,0,0,0,0,30.81C0,225.56,158.44,384,353.19,384A30.84,30.84,0,0,0,384,353.19V282.86A30.85,30.85,0,0,0,353.19,252.05Z"/></g></g></svg>